<?xml version="1.0" encoding="UTF-8" standalone="no"?>
<!-- Created with PhotoLine 22.40B4 (www.pl32.com) -->
<!DOCTYPE svg PUBLIC "-//W3C//DTD SVG 1.1//EN" "http://www.w3.org/Graphics/SVG/1.1/DTD/svg11.dtd">
<svg width="137" height="154" viewBox="0 0 137 154" version="1.1" xmlns="http://www.w3.org/2000/svg" xmlns:xlink="http://www.w3.org/1999/xlink">
  <g transform="matrix(1 0 0 1 5 0)">
    <g id="Circle/Ellipse" transform="matrix(1.028672 0 0 1.028672 -24.757423 -23.072816)">
      <path fill="#ed2265" fill-rule="evenodd" d="M26.42 60.67 C26.42 47.84 36.84 37.42 49.67 37.42 C62.5 37.42 75.02 46.49 81.99 56.37 C89.16 66.55 98.19 92.67 96.73 121.99 C76.32 98.82 59.63 90.07 47.32 85.21 C38.17 81.6 26.42 74.52 26.42 60.67 Z"/>
    </g>
    <g transform="matrix(1 0 0 1 -1.000008 0)">
      <path fill="#ed2265" fill-rule="evenodd" d="M62.81 93.2 C59.2 96.82 62.17 93.82 54.16 102.42 C54.07 89.43 53.81 94.99 54.5 85.73 C57.36 88.11 60.2 90.54 62.81 93.2 Z M78 79.95 C76.89 71.83 75.25 64.05 73.18 56.12 L69.04 44.47 L66.55 39.5 L69.33 34.92 C78.21 23.59 87.98 16.66 102.58 15.42 C117.18 16.89 125.02 24.74 126.5 39.33 C124.94 53.91 117.43 58.63 105 64.58 C95.27 68.67 86.47 73.63 78 79.95 Z"/>
    </g>
    <g transform="matrix(0.984435 0 0 0.984435 2.013697 118.834228)">
      <path fill="#fafafa" d="M7.36 28.29 L7.36 3.57 C7.36 1.74 5.92 0.26 4.14 0.26 C2.32 0.26 0.88 1.74 0.88 3.57 L0.88 30.45 C0.88 32.51 2.37 34 4.43 34 L19.6 34 C21.14 34 22.48 32.75 22.48 31.17 C22.48 29.54 21.14 28.29 19.6 28.29 Z M30.35 0.26 C28.52 0.26 27.04 1.79 27.04 3.57 L27.04 31.02 C27.04 32.8 28.52 34.34 30.35 34.34 C32.12 34.34 33.61 32.8 33.61 31.02 L33.61 3.57 C33.61 1.79 32.12 0.26 30.35 0.26 Z M63.89 0.26 C62.12 0.26 60.63 1.79 60.63 3.57 L60.63 22.43 L45.75 2.13 C44.93 0.98 43.83 0.26 42.44 0.26 C40.71 0.26 39.36 1.36 39.36 3.38 L39.36 30.98 C39.36 32.75 40.85 34.29 42.72 34.29 C44.5 34.29 45.94 32.75 45.94 30.98 L45.94 12.11 L60.82 32.37 C61.68 33.57 62.79 34.29 64.18 34.29 C65.86 34.29 67.2 33.18 67.2 31.12 L67.2 3.57 C67.2 1.79 65.76 0.26 63.89 0.26 Z M100.53 29.58 L88.57 15.95 L99.28 4.82 C99.61 4.38 99.95 3.66 99.95 2.94 C99.95 1.36 98.61 0.06 97.02 0.06 C96.11 0.06 95.25 0.59 94.72 1.17 L79.45 16.77 L79.45 3.33 C79.45 1.55 77.97 0.06 76.19 0.06 C74.41 0.06 72.97 1.55 72.97 3.33 L72.97 31.12 C72.97 32.85 74.41 34.34 76.19 34.34 C77.97 34.34 79.45 32.85 79.45 31.07 L79.45 25.41 L84.54 20.13 L96.25 33.38 C96.78 33.95 97.55 34.34 98.37 34.34 C99.95 34.34 101.25 33.04 101.25 31.5 C101.25 30.78 100.96 30.06 100.53 29.58 Z M127.06 0.4 L106.99 0.4 C105.46 0.4 104.11 1.65 104.11 3.28 C104.11 4.86 105.46 6.11 106.99 6.11 L113.76 6.11 L113.76 30.93 C113.76 32.8 115.25 34.34 117.02 34.34 C118.75 34.34 120.24 32.8 120.24 30.93 L120.24 6.11 L127.06 6.11 C128.59 6.11 129.89 4.86 129.89 3.28 C129.89 1.65 128.59 0.4 127.06 0.4 Z"/>
    </g>
  </g>
</svg>
